<?xml version="1.0" encoding="UTF-8" standalone="no"?><!DOCTYPE svg PUBLIC "-//W3C//DTD SVG 1.1//EN" "http://www.w3.org/Graphics/SVG/1.1/DTD/svg11.dtd"><!-- Generated by graphviz version 2.40.1 (20161225.0304)
 --><!-- Title: structs Pages: 1 --><svg xmlns="http://www.w3.org/2000/svg" xmlns:xlink="http://www.w3.org/1999/xlink" width="193pt" height="74pt" viewBox="0.00 0.00 193.00 74.00">
<g id="graph0" class="graph" transform="scale(1 1) rotate(0) translate(4 70)">
<title>structs</title>
<polygon fill="#ffffff" stroke="transparent" points="-4,4 -4,-70 189,-70 189,4 -4,4"/>
<!-- struct1 -->
<g id="node1" class="node">
<title>struct1</title>
<text text-anchor="start" x="12" y="-33.4" font-family="Times,serif" font-size="14.00" fill="#000000">*</text>
<polygon fill="none" stroke="#000000" points="21,-26 21,-48 44,-48 44,-26 21,-26"/>
<text text-anchor="start" x="23.75" y="-32.4" font-family="Times,serif" font-size="14.00" fill="#000000">1 1</text>
<polygon fill="none" stroke="#000000" points="21,-4 21,-26 44,-26 44,-4 21,-4"/>
<text text-anchor="start" x="23.75" y="-10.4" font-family="Times,serif" font-size="14.00" fill="#000000">1 1</text>
</g>
<!-- struct2 -->
<g id="node2" class="node">
<title>struct2</title>
<text text-anchor="start" x="143" y="-10.2" font-family="Times,serif" font-size="14.00" fill="#000000">*</text>
<polygon fill="none" stroke="#000000" points="152,-26 152,-48 175,-48 175,-26 152,-26"/>
<text text-anchor="start" x="154.75" y="-32.4" font-family="Times,serif" font-size="14.00" fill="#000000">1 1</text>
<polygon fill="none" stroke="#000000" points="152,-4 152,-26 175,-26 175,-4 152,-4"/>
<text text-anchor="start" x="154.75" y="-10.4" font-family="Times,serif" font-size="14.00" fill="#000000">2 1</text>
</g>
<!-- struct1&#45;&gt;struct2 -->
<g id="edge1" class="edge">
<title>struct1-&gt;struct2</title>
<path fill="none" stroke="#000000" d="M54.1433,-26C73.3766,-26 99.4228,-26 120.6195,-26"/>
<polygon fill="#000000" stroke="#000000" points="120.8915,-29.5001 130.8915,-26 120.8915,-22.5001 120.8915,-29.5001"/>
<text text-anchor="start" x="74.1434" y="-51.4" font-family="Times,serif" font-size="14.00" fill="#000000">Turn 1</text>
<text text-anchor="start" x="84.4474" y="-31.4" font-family="Times,serif" font-size="14.00" fill="#000000">LL</text>
</g>
</g>
</svg>